<svg width="29" height="42" viewBox="0 0 29 42" fill="none" xmlns="http://www.w3.org/2000/svg">
<g clip-path="url(#clip0_142_379)">
<path d="M7.00593 41.9999C10.8716 41.9999 14.0089 38.8639 14.0089 34.9999V27.9999H7.00593C3.14027 27.9999 0.00292969 31.1359 0.00292969 34.9999C0.00292969 38.8639 3.14027 41.9999 7.00593 41.9999Z" fill="#0ACF83"/>
<path d="M0.00292969 21C0.00292969 17.136 3.14027 14 7.00593 14H14.0089V28H7.00593C3.14027 28 0.00292969 24.864 0.00292969 21Z" fill="#A259FF"/>
<path d="M0.00292969 7C0.00292969 3.136 3.14027 0 7.00593 0H14.0089V14H7.00593C3.14027 14 0.00292969 10.864 0.00292969 7Z" fill="#F24E1E"/>
<path d="M14.0088 0H21.0118C24.8775 0 28.0148 3.136 28.0148 7C28.0148 10.864 24.8775 14 21.0118 14H14.0088V0Z" fill="#FF7262"/>
<path d="M28.0148 21C28.0148 24.864 24.8775 28 21.0118 28C17.1461 28 14.0088 24.864 14.0088 21C14.0088 17.136 17.1461 14 21.0118 14C24.8775 14 28.0148 17.136 28.0148 21Z" fill="#1ABCFE"/>
</g>
<defs>
<clipPath id="clip0_142_379">
<rect width="28.0176" height="42" fill="white"/>
</clipPath>
</defs>
</svg>
